<svg id="Layer_1" data-name="Layer 1" xmlns="http://www.w3.org/2000/svg" viewBox="0 0 1024 180"><defs><style>.cls-1{fill:#181818;}</style></defs><title>pn-logo-positive</title><path class="cls-1" d="M250.46,34.42c-21.13,0-32.93,4.64-35.19,14.12l-3.39,14.3-9.79,50.07c-1.32,6.59-2.07,11.67-2.07,15.81,0,14.12,8.66,17.51,18.07,17.51a99.09,99.09,0,0,0,18.82-1.7L242.56,112c2.07.19,4.14.19,6,.19,31.06,0,50.64-14.12,50.64-42.17C299.22,47.22,286.79,34.42,250.46,34.42Zm.95,51.76a31.79,31.79,0,0,1-4.14-.18L251,64.35h5.64c5.46,0,10,2.45,10,8.66C266.65,82,261,86.18,251.41,86.18Z"/><path class="cls-1" d="M401.41,115.92a12.49,12.49,0,0,1-4.89.94c-2.26,0-2.83-.94-2.83-2.44,0-1.13.57-3,.75-4.9l7.16-41C398,64.91,389.93,62.66,383,62.66c-16.19,0-18.25,3.76-20.14,15.8l-5.64,34.26c-.94,1.32-4,2.83-6.22,2.83-3.57,0-5.27-.57-4.32-6l5.27-29.36c1.88-10.35.18-17.5-15.44-17.5-23.15,0-33.88,4.89-33.88,17.88,0,3.76,1.7,8.09,3.76,10l6.78-1.32-4.7,23.91a85.45,85.45,0,0,0-1.51,14.68c0,13,8.28,18.45,20.14,18.45,14.68,0,29.36-5.84,33.69-20.71a39.56,39.56,0,0,0-1.5,9.6c0,7,4.51,10.92,14.11,10.92,19.2,0,35.39-5.65,35.39-18.07C408.75,122.7,406.3,118,401.41,115.92Z"/><path class="cls-1" d="M456.36,62.47c-25.79,0-38.58,13.36-38.58,29,0,10.36,2.25,14.5,10,19.77,3.95,2.82,12.23,6.58,16,7.9,1.7.76,2.07,1.7,2.07,2.45,0,1.5-1.69,2.45-6.59,2.45-6,0-13.17-2.83-17.88-6.4-6.78,2.07-10.73,6.4-10.73,13.55,0,10.73,8.29,15.62,31.62,15.62,28.24,0,41.41-12.42,41.41-30.3,0-6.78-3-11.86-10.91-17.51a85.24,85.24,0,0,0-11.67-6c-2.45-1.13-3.2-1.7-3.2-2.64,0-1.31,1.69-2.26,5.65-2.26A29.66,29.66,0,0,1,478.57,93c7.34-2.26,10.54-6.78,10.54-13.55C489.11,67.74,480.83,62.47,456.36,62.47Z"/><path class="cls-1" d="M587.55,115.92a13.55,13.55,0,0,1-5.09.94c-2.07,0-2.63-.94-2.63-2.44a32.23,32.23,0,0,1,.75-4.9l3-14.3a95,95,0,0,0,1.7-13.93c0-10-6.4-18.63-20.33-18.63-12.24,0-18.82,4.32-25.41,11.29l9-43.48c-3.76-4.71-11.29-7-21.83-7C512.63,23.5,509.06,28,506,46.28l-11.29,66.07c-.94,5.83-1.88,11.48-1.88,16.56,0,14.31,10.16,17.32,22.21,17.32,3.76,0,9.79-.38,13-1.7L536,96.16a9.34,9.34,0,0,1,7.15-3.2c2.45,0,4.15,1.32,4.15,4.33,0,2.07-2.07,13.74-3.77,22.4a72.07,72.07,0,0,0-1.32,13.74c0,8.28,4.9,12.61,17.32,12.61,19.2,0,35.2-5.65,35.2-18.07C594.7,122.7,592.25,118,587.55,115.92Z"/><path class="cls-1" d="M697.27,115.92a13.46,13.46,0,0,1-5.08.94c-2.26,0-2.63-.94-2.63-2.44a31,31,0,0,1,.75-4.9l3-14.3A76.17,76.17,0,0,0,695,81.29c0-10-6.4-18.63-20.89-18.63-16.19,0-26.35,6.4-35,22.77l6.78-20.14c-2.45-1.13-11.49-2.63-17.13-2.63-20.52,0-30.31,4.89-30.31,17.88,0,3.76,1.51,8.09,3.58,10l7-1.32-4.52,23.16c-1.12,6.21-2.25,12.23-2.25,16.94,0,11.67,5.83,16.94,20.51,16.94,4.71,0,11.67-.57,15.06-1.89l7.91-48.18a9.33,9.33,0,0,1,7.15-3.2c2.45,0,4.14,1.32,4.14,4.33,0,2.07-2.07,13.74-3.76,22.4a72.07,72.07,0,0,0-1.32,13.74c0,8.28,4.89,12.61,17.32,12.61,19.2,0,35.19-5.65,35.19-18.07C704.42,122.7,702,118,697.27,115.92Z"/><path class="cls-1" d="M795.52,86.37c0-12.8-8.85-23.9-32.38-23.9-32.75,0-54.4,18.63-54.4,49.5,0,21.46,13.74,34.82,40.09,34.82,28.62,0,42.36-8.84,42.36-19.95,0-5.27-3.39-10.54-8.85-11.86-4.71,2.64-13.55,4.33-22,4.33-8.28,0-11.3-2.45-12.05-6.21,2.64.19,6.4.38,10.92.38C778.76,113.48,795.52,107.26,795.52,86.37Zm-47.06,12.8c.75-6,4.71-11.29,11.1-11.29,2.83,0,5.09,1.5,5.09,5.27,0,3.38-3.39,6.21-8.29,6.21C753,99.36,750.34,99.36,748.46,99.17Z"/><path class="cls-1" d="M925.76,62.47c-5.65,0-10.54,1.13-13.37,4a103.08,103.08,0,0,1,1,15.62c0,13-1.51,17.32-12.62,33.88L899,77c-.37-10.35-3.76-14.49-20.33-14.49-6,0-12,1.88-15.05,5.08A89.68,89.68,0,0,1,864.58,82c0,13-.37,16-12.61,33.88L850.09,74.7c-.38-9.41-4.51-11.86-16.94-11.86-24.66,0-32.56,6.59-32.56,17.7a16.33,16.33,0,0,0,3.95,10.54l7.34-1.7,4.7,50.45c3.77,3.95,10.55,7,20,7,12.05,0,20.7-5.27,31.62-20.89l1.51,15.62c3.76,3.95,8.28,5.27,15.81,5.27,13.55,0,20.7-3.2,30.3-11.67,20.15-17.88,29-34.26,29-54.21C944.77,69.06,939.31,62.47,925.76,62.47Z"/><path class="cls-1" d="M998.4,88.06a29.66,29.66,0,0,1,15.06,4.9c7.34-2.26,10.54-6.78,10.54-13.55,0-11.67-8.28-16.94-32.75-16.94-25.79,0-38.59,13.36-38.59,29,0,10.36,2.26,14.5,10,19.77,4,2.82,12.23,6.58,16,7.9,1.69.76,2.07,1.7,2.07,2.45,0,1.5-1.7,2.45-6.59,2.45-6,0-13.18-2.83-17.88-6.4-6.78,2.07-10.73,6.4-10.73,13.55,0,10.73,8.28,15.62,31.62,15.62,28.23,0,41.41-12.42,41.41-30.3,0-6.78-3-11.86-10.92-17.51A84.09,84.09,0,0,0,996,93c-2.44-1.13-3.2-1.7-3.2-2.64C992.75,89,994.45,88.06,998.4,88.06Z"/><path class="cls-1" d="M71.22,157.32,36.16,160.5a3.89,3.89,0,0,0-3.3,5.23,22.19,22.19,0,0,0,42.54-3.87A3.88,3.88,0,0,0,71.22,157.32Z"/><path class="cls-1" d="M105.09.17a41.9,41.9,0,0,0-28.44,14.9,51,51,0,0,0-20.9-2.13C21,16.1,16.27,49.82,16.27,49.82L.34,130.87a16.09,16.09,0,0,0,1.77,11.38c2.25,3.74,6.53,7.31,14.61,6.58l10.59-1,37.41-3.39,4.29-.39,4.4-.4,48-4.36c8.08-.73,11.64-5,13.19-9.1a16.1,16.1,0,0,0-.31-11.51L120,82.54a42,42,0,0,0-15-82.37ZM115.48,69a27.39,27.39,0,0,1-4.08.71,28,28,0,1,1,4.08-.71Z"/></svg>