<svg id="Layer_1" data-name="Layer 1" xmlns="http://www.w3.org/2000/svg" viewBox="0 0 512 512"><defs><style>.cls-1{fill:#fff;}.cls-2{fill:#ef5656;}</style></defs><title>pushnews-icon-negative-512</title><path class="cls-1" d="M256,0C114.62,0,0,114.62,0,256S114.62,512,256,512,512,397.38,512,256,397.38,0,256,0Zm-1.65,381.1a35.37,35.37,0,0,1-67.82,6.16,6.19,6.19,0,0,1,5.26-8.32l55.89-5.07A6.19,6.19,0,0,1,254.35,381.1ZM360.46,332c-2.73,7.23-9,14.79-23.3,16.08l-84.8,7.7-7.77.7-7.58.69-66.09,6-18.71,1.7c-14.28,1.3-21.83-5-25.82-11.62a28.37,28.37,0,0,1-3.12-20.1L151.42,190s8.3-59.57,69.76-65.15c14.44-1.31,26.62.35,36.85,3.74a74.12,74.12,0,0,0,74.64,119.83c.71-.17,1.4-.37,2.1-.56l25.14,63.84A28.36,28.36,0,0,1,360.46,332Z"/><path class="cls-2" d="M328.88,232.88A58.32,58.32,0,1,1,373.16,171,58.47,58.47,0,0,1,328.88,232.88Z"/></svg>