<svg id="Layer_1" data-name="Layer 1" xmlns="http://www.w3.org/2000/svg" viewBox="0 0 512 512"><defs><style>.cls-1{fill:#00adee;}.cls-2{fill:#ef5656;}</style></defs><title>pushnews-favicon-positive</title><path class="cls-1" d="M242.17,451.9l-92.91,8.43a10.29,10.29,0,0,0-8.74,13.84,58.79,58.79,0,0,0,112.73-10.23A10.29,10.29,0,0,0,242.17,451.9Z"/><path class="cls-1" d="M477.08,112.29a123.43,123.43,0,0,0-217.62-68c-17-5.66-37.3-8.44-61.35-6.25C96,47.28,82.17,146.3,82.17,146.3l-46.77,238c-2.24,11.4-.8,23.45,5.19,33.4,6.62,11,19.18,21.47,42.91,19.32l31.1-2.82,109.85-10L237,423.07,250,421.9l141-12.8c23.73-2.15,34.19-14.71,38.73-26.73,4.1-10.87,3.34-23-.91-33.79L386.9,242.37A123.39,123.39,0,0,0,477.08,112.29Z"/><path class="cls-2" d="M377.13,217.56a96.93,96.93,0,1,1,73.61-102.88A97.19,97.19,0,0,1,377.13,217.56Z"/></svg>