<svg id="Layer_1" data-name="Layer 1" xmlns="http://www.w3.org/2000/svg" viewBox="0 0 512 512"><defs><style>.cls-1{fill:#00adee;}.cls-2{fill:#fff;}.cls-3{fill:#ef5656;}</style></defs><title>pushnews-icon-positive-512</title><circle class="cls-1" cx="256" cy="256" r="256"/><path class="cls-2" d="M247.68,373.86l-55.89,5.07a6.19,6.19,0,0,0-5.26,8.32,35.37,35.37,0,0,0,67.82-6.16A6.19,6.19,0,0,0,247.68,373.86Z"/><path class="cls-2" d="M389,169.54a74.26,74.26,0,0,0-130.92-40.93c-10.24-3.41-22.44-5.08-36.91-3.76C159.72,130.43,151.42,190,151.42,190L123.28,333.19a28.37,28.37,0,0,0,3.12,20.1c4,6.62,11.54,12.92,25.82,11.62l18.71-1.7,66.09-6,7.58-.69,7.77-.71,84.8-7.7c14.28-1.3,20.57-8.85,23.3-16.08a28.36,28.36,0,0,0-.55-20.33l-25.16-63.9A74.24,74.24,0,0,0,389,169.54Z"/><path class="cls-3" d="M328.88,232.88A58.32,58.32,0,1,1,373.16,171,58.47,58.47,0,0,1,328.88,232.88Z"/></svg>