<svg id="Layer_1" data-name="Layer 1" xmlns="http://www.w3.org/2000/svg" viewBox="0 0 1024 176"><defs><style>.cls-1{fill:#00adee;}</style></defs><title>pusnews-logo-positive-blue</title><path class="cls-1" d="M215.27,51.6c2.26-9.48,14.05-14.12,35.19-14.12,36.33,0,48.75,12.8,48.75,35.57,0,28-19.58,42.16-50.63,42.16-1.88,0-4,0-6-.19l-5.65,32.56a99,99,0,0,1-18.82,1.7c-9.41,0-18.07-3.39-18.07-17.51,0-4.14.75-9.22,2.07-15.81l9.79-50.07S213.56,58.81,215.27,51.6Zm41.4,15.81H251l-3.76,21.65a30.57,30.57,0,0,0,4.14.19c9.6,0,15.25-4.14,15.25-13.18C266.65,69.86,262.13,67.41,256.67,67.41Z"/><path class="cls-1" d="M373.36,149.1c-9.6,0-14.12-4-14.12-10.92a39.47,39.47,0,0,1,1.5-9.6c-4.33,14.87-19,20.7-33.69,20.7-11.86,0-20.14-5.46-20.14-18.45a86.24,86.24,0,0,1,1.5-14.68l4.71-23.91-6.78,1.32c-2.07-1.88-3.76-6.21-3.76-10,0-13,10.73-17.88,33.88-17.88,15.62,0,17.32,7.15,15.44,17.51l-5.27,29.36c-.94,5.46.75,6,4.33,6,2.26,0,5.27-1.5,6.21-2.82l5.64-34.26c1.88-12,4-15.81,20.14-15.81,7,0,15.06,2.26,18.63,5.83l-7.15,41c-.19,1.88-.75,3.76-.75,4.89,0,1.51.56,2.45,2.82,2.45a12.62,12.62,0,0,0,4.89-.94c4.89,2.07,7.34,6.77,7.34,12C408.75,143.45,392.56,149.1,373.36,149.1Z"/><path class="cls-1" d="M472.74,102c7.91,5.65,10.92,10.73,10.92,17.51,0,17.88-13.18,30.3-41.41,30.3-23.34,0-31.62-4.89-31.62-15.62,0-7.15,4-11.48,10.73-13.55,4.71,3.58,11.86,6.4,17.88,6.4,4.89,0,6.59-.94,6.59-2.45,0-.75-.38-1.69-2.07-2.45-3.76-1.32-12-5.08-16-7.9-7.72-5.27-10-9.41-10-19.77,0-15.62,12.8-29,38.59-29,24.47,0,32.75,5.27,32.75,16.94,0,6.78-3.2,11.3-10.54,13.55a29.7,29.7,0,0,0-15.06-4.89c-4,0-5.65.94-5.65,2.26,0,.94.75,1.51,3.2,2.63A84.23,84.23,0,0,1,472.74,102Z"/><path class="cls-1" d="M559.5,149.1c-12.43,0-17.32-4.33-17.32-12.61a72.22,72.22,0,0,1,1.32-13.74c1.7-8.66,3.77-20.33,3.77-22.4,0-3-1.7-4.33-4.14-4.33a9.35,9.35,0,0,0-7.15,3.2l-7.9,48.37c-3.2,1.32-9.22,1.7-13,1.7-12,0-22.21-3-22.21-17.32,0-5.08.94-10.73,1.88-16.56L506,49.34c3-18.26,6.59-22.78,20.7-22.78,10.54,0,18.07,2.26,21.84,7l-9,43.48c6.59-7,13.18-11.29,25.41-11.29,13.93,0,20.33,8.66,20.33,18.63a95.12,95.12,0,0,1-1.69,13.93l-3,14.31a31.42,31.42,0,0,0-.75,4.89c0,1.51.56,2.45,2.63,2.45a13.64,13.64,0,0,0,5.08-.94c4.71,2.07,7.15,6.77,7.15,12C594.7,143.45,578.7,149.1,559.5,149.1Z"/><path class="cls-1" d="M669.23,149.1c-12.42,0-17.32-4.33-17.32-12.61a71.91,71.91,0,0,1,1.32-13.74c1.69-8.66,3.76-20.33,3.76-22.4,0-3-1.69-4.33-4.14-4.33a9.34,9.34,0,0,0-7.15,3.2l-7.91,48.19c-3.39,1.32-10.35,1.88-15.06,1.88-14.68,0-20.52-5.27-20.52-16.94,0-4.71,1.13-10.73,2.26-16.94L609,92.25l-7,1.32c-2.07-1.88-3.58-6.21-3.58-10,0-13,9.79-17.88,30.31-17.88,5.64,0,14.68,1.51,17.13,2.64l-6.78,20.14c8.66-16.37,18.82-22.77,35-22.77,14.49,0,20.89,8.66,20.89,18.63a76.21,76.21,0,0,1-1.69,13.93l-3,14.31a31,31,0,0,0-.75,4.89c0,1.51.38,2.45,2.63,2.45a13.62,13.62,0,0,0,5.08-.94c4.71,2.07,7.15,6.77,7.15,12C704.42,143.45,688.43,149.1,669.23,149.1Z"/><path class="cls-1" d="M759.19,116.54c-4.52,0-8.28-.19-10.92-.38.75,3.76,3.76,6.21,12,6.21,8.47,0,17.32-1.69,22-4.33,5.46,1.32,8.85,6.59,8.85,11.86,0,11.1-13.74,20-42.35,20-26.35,0-40.09-13.36-40.09-34.82,0-30.87,21.65-49.5,54.4-49.5,23.53,0,32.38,11.1,32.38,23.9C795.52,110.32,778.76,116.54,759.19,116.54Zm.38-25.6c-6.4,0-10.35,5.27-11.1,11.3,1.88.19,4.52.19,7.9.19,4.89,0,8.28-2.83,8.28-6.21C764.65,92.45,762.39,90.94,759.56,90.94Z"/><path class="cls-1" d="M868.16,129c-10.92,15.62-19.57,20.89-31.62,20.89-9.41,0-16.19-3-20-7l-4.7-50.44-7.34,1.69a16.35,16.35,0,0,1-4-10.54c0-11.1,7.91-17.69,32.56-17.69,12.43,0,16.57,2.45,16.94,11.86L852,119c12.23-17.88,12.61-20.9,12.61-33.88a89.65,89.65,0,0,0-.94-14.49c3-3.2,9-5.08,15.06-5.08,16.57,0,20,4.14,20.33,14.49l1.69,39c11.11-16.57,12.61-20.9,12.61-33.88a103.89,103.89,0,0,0-.94-15.62c2.82-2.82,7.72-3.95,13.36-3.95,13.55,0,19,6.59,19,18.44,0,20-8.85,36.33-29,54.21-9.6,8.47-16.75,11.67-30.3,11.67-7.53,0-12-1.32-15.81-5.27Z"/><path class="cls-1" d="M1007.62,102c7.91,5.65,10.92,10.73,10.92,17.51,0,17.88-13.18,30.3-41.41,30.3-23.34,0-31.62-4.89-31.62-15.62,0-7.15,4-11.48,10.73-13.55,4.71,3.58,11.86,6.4,17.88,6.4,4.89,0,6.59-.94,6.59-2.45,0-.75-.38-1.69-2.07-2.45-3.76-1.32-12-5.08-16-7.9-7.72-5.27-10-9.41-10-19.77,0-15.62,12.8-29,38.59-29,24.47,0,32.75,5.27,32.75,16.94,0,6.78-3.2,11.3-10.54,13.55a29.7,29.7,0,0,0-15.06-4.89c-4,0-5.65.94-5.65,2.26,0,.94.75,1.51,3.2,2.63A84.23,84.23,0,0,1,1007.62,102Z"/><path class="cls-1" d="M71.59,155.29l-32,2.91a3.55,3.55,0,0,0-3,4.77,20.26,20.26,0,0,0,38.84-3.53A3.55,3.55,0,0,0,71.59,155.29Z"/><path class="cls-1" d="M152.53,38.69a42.53,42.53,0,0,0-75-23.44A51.53,51.53,0,0,0,56.41,13.1c-35.2,3.2-40,37.31-40,37.31l-16.11,82a16.25,16.25,0,0,0,1.79,11.51c2.28,3.79,6.61,7.4,14.79,6.66l10.72-1,37.85-3.44,4.34-.39,4.45-.4L122.84,141c8.18-.74,11.78-5.07,13.34-9.21a16.24,16.24,0,0,0-.32-11.64l-14.41-36.6A42.52,42.52,0,0,0,152.53,38.69ZM118.09,75a33.4,33.4,0,1,1,25.36-35.45A33.49,33.49,0,0,1,118.09,75Z"/></svg>